#!OML:ASF F:\VICON\USERDATA\INSTALL\Justin_Nancy\Justin_Nancy.ASF
:FULLY-SPECIFIED
:DEGREES
98
root -8.53719 17.6033 -20.325 -2.689 -6.70918 4.10924
lowerback 7.31045 1.34543 -3.89396
upperback 0.687435 1.49785 0.661145
thorax -3.50643 0.805103 2.71942
lowerneck -16.7197 -3.47409 -9.06644
upperneck 21.3124 -3.79146 5.80798
head 9.81313 -1.84287 3.03837
rclavicle -8.69683e-016 -1.35174e-014
rhumerus -30.6325 -18.2097 -77.0793
rradius 26.3799
rwrist 12.3237
rhand -12.2573 10.1226
rfingers 7.12502
rthumb 13.809 -19.399
lclavicle -8.69683e-016 -1.35174e-014
lhumerus -31.4364 11.4156 83.3039
lradius 20.5168
lwrist -14.2193
lhand -13.1443 28.6342
lfingers 7.12502
lthumb 12.9541 58.2121
rfemur -15.4549 -2.72767 16.272
rtibia 71.2239
rfoot 9.14287 -6.09818
rtoes 14.8994
lfemur -9.92605 -0.318641 -27.5678
ltibia 19.7324
lfoot -5.92602 -3.4869
ltoes 3.5326
99
root -8.5268 17.5978 -20.182 -2.69864 -6.49261 4.19412
lowerback 7.22007 1.14859 -3.98164
upperback 0.814112 1.23746 0.743883
thorax -3.30792 0.671601 2.8848
lowerneck -17.1318 -3.40177 -9.16207
upperneck 21.4857 -3.59401 5.66377
head 9.93511 -1.7714 3.03057
rclavicle -2.54941e-014 -1.35174e-014
rhumerus -30.4871 -18.5664 -76.8771
rradius 25.9845
rwrist 13.0546
rhand -12.057 10.402
rfingers 7.12502
rthumb 14.002 -19.1065
lclavicle -2.54941e-014 -1.35174e-014
lhumerus -30.7613 12.1631 83.0559
lradius 20.7252
lwrist -16.6135
lhand -10.132 32.106
lfingers 7.12502
lthumb 15.8565 61.4767
rfemur -16.7099 -3.17577 16.1545
rtibia 71.8719
rfoot 8.26445 -6.15126
rtoes 15.1608
lfemur -9.43818 -0.248034 -27.7924
ltibia 19.8121
lfoot -6.40175 -3.62109
ltoes 4.26143
100
root -8.52187 17.592 -20.0494 -2.70421 -6.20518 4.36633
lowerback 7.15357 0.945928 -4.11819
upperback 0.847111 0.958794 0.699105
thorax -3.21549 0.532138 2.94477
lowerneck -17.0735 -3.20389 -9.31004
upperneck 21.718 -3.33675 5.85745
head 9.99074 -1.64636 3.16477
rclavicle -8.92046e-015 2.38542e-015
rhumerus -30.6391 -18.9438 -76.7691
rradius 25.7325
rwrist 13.6147
rhand -12.0196 9.96116
rfingers 7.12502
rthumb 14.0381 -19.5448
lclavicle -8.92046e-015 2.38542e-015
lhumerus -30.307 11.6738 83.2363
lradius 20.3153
lwrist -13.8115
lhand -13.5235 32.3256
lfingers 7.12502
lthumb 12.5885 61.9263
rfemur -17.9618 -3.61882 15.9894
rtibia 72.3472
rfoot 7.54643 -6.15847
rtoes 15.9369
lfemur -9.07443 -0.0711727 -28.0754
ltibia 20.0145
lfoot -7.00637 -3.94693
ltoes 3.69287
101
root -8.51983 17.5858 -19.9135 -2.8355 -6.08268 4.60064
lowerback 7.46875 0.828016 -4.42442
upperback 0.662349 0.758638 0.678612
thorax -3.5712 0.44773 3.1132
lowerneck -16.6194 -2.99052 -9.37771
upperneck 21.8604 -3.09163 5.94957
head 9.93677 -1.537 3.2472
rclavicle 3.60297e-015 -8.74653e-015
rhumerus -31.3924 -18.6525 -76.6268
rradius 25.7683
rwrist 13.5582
rhand -12.5472 10.5362
rfingers 7.12502
rthumb 13.5296 -19.0043
lclavicle 3.60297e-015 -8.74653e-015
lhumerus -30.5258 11.6456 82.9634
lradius 20.8074
lwrist -14.2461
lhand -8.63643 41.3407
lfingers 7.12502
lthumb 17.2964 70.5911
rfemur -19.0136 -3.8585 15.7689
rtibia 72.6123
rfoot 6.74491 -6.00286
rtoes 16.1043
lfemur -8.61226 0.0530512 -28.4188
ltibia 20.3501
lfoot -7.70709 -4.07058
ltoes 1.87622
102
root -8.51655 17.5769 -19.7719 -2.71923 -5.99882 4.56473
lowerback 7.3392 0.704017 -4.43793
upperback 0.595506 0.600087 0.747307
thorax -3.55517 0.370618 3.2097
lowerneck -16.3694 -2.9129 -9.42046
upperneck 21.8179 -2.99364 5.94513
head 9.86662 -1.49907 3.26603
rclavicle 4.87022e-015 0
rhumerus -31.8132 -18.7931 -76.3942
rradius 25.6218
rwrist 14.0754
rhand -13.4007 12.3761
rfingers 7.12502
rthumb 12.7069 -17.2173
lclavicle 4.87022e-015 0
lhumerus -30.3355 11.8871 82.741
lradius 21.1368
lwrist -14.9881
lhand -10.4369 34.2169
lfingers 7.12502
lthumb 15.5629 63.6107
rfemur -20.1635 -3.98394 15.8996
rtibia 72.6618
rfoot 5.60788 -5.66757
rtoes 15.0138
lfemur -8.38626 0.113334 -28.4675
ltibia 20.7165
lfoot -8.32987 -4.0681
ltoes 3.71851
103
root -8.51539 17.5708 -19.6417 -2.40451 -5.68061 4.4878
lowerback 7.0778 0.533829 -4.46239
upperback 0.584877 0.3877 0.852425
thorax -3.40172 0.262904 3.35558
lowerneck -16.4026 -2.99538 -9.37037
upperneck 21.6825 -3.06363 5.73573
head 9.82776 -1.54884 3.17074
rclavicle 1.54058e-015 -5.56597e-015
rhumerus -31.9222 -19.1797 -76.156
rradius 25.4702
rwrist 14.4714
rhand -13.7523 12.9448
rfingers 7.12502
rthumb 12.3679 -16.6693
lclavicle 1.54058e-015 -5.56597e-015
lhumerus -29.8318 12.035 82.7379
lradius 21.1878
lwrist -14.8782
lhand -11.1079 33.2066
lfingers 7.12502
lthumb 14.9166 62.6495
rfemur -21.5817 -4.32652 16.1323
rtibia 72.538
rfoot 4.42905 -5.31267
rtoes 13.5869
lfemur -8.4476 -0.0249098 -28.4736
ltibia 21.0692
lfoot -8.74941 -4.08634
ltoes 3.68356
104
root -8.51057 17.5629 -19.5093 -2.28386 -5.34248 4.50237
lowerback 7.09514 0.394839 -4.53102
upperback 0.639035 0.200201 0.932369
thorax -3.33854 0.168674 3.49634
lowerneck -16.7715 -3.12158 -9.26076
upperneck 21.704 -3.15364 5.40861
head 9.90655 -1.61367 3.02222
rclavicle 2.14936e-014 1.74931e-014
rhumerus -31.8956 -19.3638 -76.0012
rradius 25.3809
rwrist 14.225
rhand -13.4744 13.358
rfingers 7.12502
rthumb 12.6358 -16.2398
lclavicle 2.14936e-014 1.74931e-014
lhumerus -29.3392 12.1915 82.773
lradius 21.4531
lwrist -14.9344
lhand -8.51493 39.774
lfingers 7.12502
lthumb 17.4133 69.014
rfemur -22.7641 -4.69033 16.2261
rtibia 72.2199
rfoot 3.08946 -4.91388
rtoes 12.8939
lfemur -8.32432 0.0142829 -28.5911
ltibia 21.5165
lfoot -9.35016 -4.2102
ltoes 3.83426
105
root -8.50216 17.5469 -19.3736 -2.29467 -5.04295 4.81243
lowerback 7.09422 0.257722 -4.78114
upperback 0.695948 -0.00308253 0.871957
thorax -3.25976 0.0675447 3.59464
lowerneck -17.0249 -2.98672 -9.37407
upperneck 22.0252 -2.96941 5.6178
head 10.0578 -1.51495 3.14621
rclavicle 1.0138e-014 -2.06736e-014
rhumerus -31.964 -19.5271 -75.8584
rradius 25.2587
rwrist 13.9716
rhand -13.1336 14.0427
rfingers 7.12502
rthumb 12.9645 -15.5345
lclavicle 1.0138e-014 -2.06736e-014
lhumerus -28.9815 12.0928 82.7396
lradius 21.8251
lwrist -14.9627
lhand -11.9901 31.6154
lfingers 7.12502
lthumb 14.0665 61.1193
rfemur -23.717 -5.03778 15.9092
rtibia 71.7846
rfoot 1.56433 -4.43232
rtoes 12.9078
lfemur -8.10618 0.104942 -29.0389
ltibia 22.0559
lfoot -10.0122 -4.38711
ltoes 3.78867
106
root -8.49836 17.5264 -19.2413 -2.17265 -4.66544 4.999
lowerback 7.24854 0.0740157 -5.01797
upperback 0.469913 -0.277931 0.905871
thorax -3.55337 -0.0528645 3.79329
lowerneck -16.6222 -3.00481 -9.40481
upperneck 21.8366 -2.97108 5.41572
head 9.91332 -1.54458 3.07665
rclavicle 7.30534e-015 -5.56597e-015
rhumerus -32.4869 -19.3982 -75.5791
rradius 25.2273
rwrist 13.827
rhand -13.2387 13.773
rfingers 7.12502
rthumb 12.8631 -15.8106
lclavicle 7.30534e-015 -5.56597e-015
lhumerus -29.0111 11.84 82.7912
lradius 22.1634
lwrist -14.3849
lhand -15.3365 26.5276
lfingers 7.12502
lthumb 10.8402 56.2279
rfemur -24.7475 -5.40761 15.7873
rtibia 71.1695
rfoot 0.321976 -4.00976
rtoes 12.1835
lfemur -8.07093 0.0701533 -29.3326
ltibia 22.6382
lfoot -10.654 -4.54686
ltoes 3.79281
